Patient4_TMGait_0pt4_01_right_34_GRF.mot
version=1
nRows=71
nColumns=19
inDegrees=no
endheader
time	F1x	F1y	F1z	M1x	M1y	M1z	F2x	F2y	F2z	M2x	M2y	M2z	EC1x	EC1y	EC1z	EC2x	EC2y	EC2z
44.17	-9.6894	757.6522	61.29	-271.333	-64.2918	800.8887	-21.2691	-6.1546	5.2065	-2.3816	1.4668	0.015677	-0.0592	0.0182	-0.0073	-0.0462	0.0165	0.9585
44.1837	-8.9282	754.8196	58.7842	-270.4128	-61.1208	797.0572	-14.3195	-3.5286	3.4536	-1.4001	1.0724	0.70428	-0.0592	0.0182	-0.0073	-0.0462	0.0165	0.9585
44.1974	-7.8163	752.7673	56.3158	-269.8084	-57.8368	793.1739	-8.4822	-1.3308	1.9685	-0.56602	0.74897	1.28	-0.0592	0.0182	-0.0073	-0.0462	0.0165	0.9585
44.2111	-6.3719	751.7506	53.9751	-269.6274	-54.5523	789.4838	-4.0668	0.32851	0.83831	0.07416	0.51019	1.7169	-0.0592	0.0182	-0.0073	-0.0462	0.0165	0.9585
44.2249	-4.6199	751.7628	51.8149	-269.8792	-51.3336	786.0676	-1.0394	1.4627	0.052075	0.52004	0.35843	2.0141	-0.0592	0.0182	-0.0073	-0.0462	0.0165	0.9585
44.2386	-2.5667	752.5954	49.8144	-270.4902	-48.1673	782.8402	0.8069	2.1575	-0.44353	0.79765	0.28341	2.1935	-0.0592	0.0182	-0.0073	-0.0462	0.0165	0.9585
44.2523	-0.2207	753.8888	47.9913	-271.3157	-45.0718	779.5899	1.7556	2.4824	-0.7239	0.93158	0.27186	2.231	-0.0592	0.0182	-0.0073	-0.0462	0.0165	0.9585
44.266	2.434	755.2316	46.3415	-272.1792	-42.0397	776.0498	2.0671	2.4998	-0.85997	0.94297	0.31171	2.1125	-0.0592	0.0182	-0.0073	-0.0462	0.0165	0.9585
44.2797	5.4147	756.2502	44.9107	-272.9082	-39.1095	771.9967	1.9836	2.234	-0.91589	0.84031	0.39484	1.7868	-0.0592	0.0182	-0.0073	-0.0462	0.0165	0.9585
44.2934	8.7087	756.707	43.7463	-273.3749	-36.3355	767.3488	1.6842	1.6719	-0.93889	0.61876	0.51377	1.1867	-0.0592	0.0182	-0.0073	-0.0462	0.0165	0.9585
44.3071	12.2659	756.5346	42.9317	-273.512	-33.8315	762.189	1.2874	0.78357	-0.95164	0.26546	0.65223	0.24713	-0.0592	0.0182	-0.0073	-0.0462	0.0165	0.9585
44.3209	15.976	755.8065	42.5376	-273.3118	-31.7255	756.7212	0.89782	-0.45537	-0.96657	-0.2297	0.78985	-1.0843	-0.0592	0.0182	-0.0073	-0.0462	0.0165	0.9585
44.3346	19.6943	754.7117	42.6123	-272.8222	-30.1349	751.2317	0.57717	-2.0199	-0.97826	-0.85792	0.89911	-2.7851	-0.0592	0.0182	-0.0073	-0.0462	0.0165	0.9585
44.3483	23.2641	753.5262	43.1574	-272.1403	-29.1284	746.0556	0.37864	-3.823	-0.97229	-1.5806	0.94276	-4.7666	-0.0592	0.0182	-0.0073	-0.0462	0.0165	0.9585
44.362	26.5641	752.5645	44.1224	-271.3952	-28.7015	741.5262	0.34896	-5.6334	-0.90917	-2.3019	0.85847	-6.7718	-0.0592	0.0182	-0.0073	-0.0462	0.0165	0.9585
44.3757	29.5176	752.0963	45.4213	-270.7119	-28.7863	737.8955	0.53815	-7.0145	-0.73855	-2.844	0.56814	-8.3028	-0.0592	0.0182	-0.0073	-0.0462	0.0165	0.9585
44.3894	32.0729	752.2698	46.9589	-270.1741	-29.2945	735.2699	1.0078	-7.274	-0.38732	-2.9227	-0.032267	-8.5718	-0.0592	0.0182	-0.0073	-0.0462	0.0165	0.9585
44.4031	34.2217	753.0242	48.6469	-269.7923	-30.1278	733.5313	1.7984	-5.3979	0.22361	-2.127	-1.0466	-6.4207	-0.0592	0.0182	-0.0073	-0.0462	0.0165	0.9585
44.4169	35.9945	754.0689	50.3917	-269.4914	-31.1652	732.3263	2.9506	-0.061161	1.1733	0.079263	-2.5704	-0.35239	-0.0592	0.0182	-0.0073	-0.0462	0.0165	0.9585
44.4306	37.439	754.8682	52.1003	-269.0998	-32.2834	731.0778	4.4471	10.2977	2.502	4.3254	-4.6316	11.3982	-0.0592	0.0182	-0.0073	-0.0462	0.0165	0.9585
44.4443	38.6273	754.5935	53.6702	-268.3319	-33.3473	728.9445	6.1626	27.2641	4.192	11.2474	-7.1473	30.6265	-0.0592	0.0182	-0.0073	-0.0462	0.0165	0.9585
44.458	39.6257	752.0924	54.9905	-266.7792	-34.224	724.8165	7.8301	52.0548	6.1028	21.3265	-9.8377	58.7115	-0.0592	0.0182	-0.0073	-0.0462	0.0165	0.9585
44.4717	40.4559	745.9547	55.9032	-263.9398	-34.7593	717.3685	8.9688	84.907	7.9174	34.6383	-12.1427	95.9243	-0.0592	0.0182	-0.0073	-0.0462	0.0165	0.9585
44.4854	41.1051	734.7149	56.2315	-259.2918	-34.808	705.2473	8.8755	124.182	9.0691	50.4943	-13.1497	140.3998	-0.0592	0.0182	-0.0073	-0.0462	0.0165	0.9585
44.4991	41.5276	717.2107	55.7976	-252.4248	-34.2395	687.3992	6.9529	165.6385	8.8613	67.1531	-11.8844	187.3214	-0.0592	0.0182	-0.0073	-0.0462	0.0165	0.9585
44.5129	41.6749	693.0576	54.5252	-243.2174	-33.0241	663.5047	3.6147	203.3337	6.931	82.2119	-8.1909	229.9151	-0.0592	0.0182	-0.0073	-0.0462	0.0165	0.9585
44.5266	41.5344	663.138	52.4523	-232.0099	-31.2222	634.4174	-0.25642	232.8408	3.7027	93.9216	-2.9504	263.0639	-0.0592	0.0182	-0.0073	-0.0462	0.0165	0.9585
44.5403	41.2054	629.479	49.7992	-219.5541	-29.0104	602.0237	-3.8744	253.6859	-0.18223	102.1127	2.8043	286.1678	-0.0592	0.0182	-0.0073	-0.0462	0.0165	0.9585
44.554	40.8642	594.5306	46.8055	-206.754	-26.5445	568.5743	-6.7268	268.003	-3.9249	107.6791	8.0118	301.6122	-0.0592	0.0182	-0.0073	-0.0462	0.0165	0.9585
44.5677	40.6274	560.3393	43.6095	-194.3664	-23.8984	535.9466	-8.6379	278.798	-6.9633	111.8632	12.0042	312.8166	-0.0592	0.0182	-0.0073	-0.0462	0.0165	0.9585
44.5814	40.5059	528.0014	40.1659	-182.8006	-21.0172	505.14	-9.6232	289.0423	-8.8942	115.8859	14.3802	323.1366	-0.0592	0.0182	-0.0073	-0.0462	0.0165	0.9585
44.5951	40.3814	497.516	36.3861	-172.0584	-17.8537	476.1575	-9.8084	301.193	-9.6731	120.7364	15.1604	335.3375	-0.0592	0.0182	-0.0073	-0.0462	0.0165	0.9585
44.6089	40.069	467.88	32.2394	-161.7667	-14.4306	448.0563	-9.3741	317.0316	-9.6306	127.1014	14.789	351.4202	-0.0592	0.0182	-0.0073	-0.0462	0.0165	0.9585
44.6226	39.3419	437.4383	27.8246	-151.3044	-10.8984	419.2658	-8.5425	337.6675	-9.4029	135.374	14.05	372.6231	-0.0592	0.0182	-0.0073	-0.0462	0.0165	0.9585
44.6363	37.9234	404.3989	23.3429	-139.9949	-7.5174	388.0728	-7.6176	363.6443	-9.7452	145.7088	13.8769	399.5456	-0.0592	0.0182	-0.0073	-0.0462	0.0165	0.9585
44.65	35.4805	367.4052	19.0125	-127.3145	-4.5873	353.1616	-6.9671	395.2261	-11.2362	158.1573	15.0362	432.4525	-0.0592	0.0182	-0.0073	-0.0462	0.0165	0.9585
44.6637	31.6985	326.0516	15.0339	-113.0826	-2.3946	314.1096	-6.9282	432.6578	-14.1856	172.7822	17.9866	471.575	-0.0592	0.0182	-0.0073	-0.0462	0.0165	0.9585
44.6774	26.473	281.1805	11.5317	-97.5744	-1.0994	271.6614	-7.6791	476.1007	-18.5316	189.639	22.7322	517.0229	-0.0592	0.0182	-0.0073	-0.0462	0.0165	0.9585
44.6911	20.0322	234.7111	8.5892	-81.4614	-0.71328	227.5899	-9.2209	525.2142	-24.0181	208.5963	28.9987	568.3619	-0.0592	0.0182	-0.0073	-0.0462	0.0165	0.9585
44.7049	12.9942	189.0776	6.2417	-65.6069	-1.067	184.15	-11.4336	578.6534	-30.2596	229.1341	36.3306	624.0899	-0.0592	0.0182	-0.0073	-0.0462	0.0165	0.9585
44.7186	6.1901	146.6015	4.4897	-50.8352	-1.8816	143.5094	-14.1438	633.8761	-36.8497	250.2665	44.2275	681.4512	-0.0592	0.0182	-0.0073	-0.0462	0.0165	0.9585
44.7323	0.38063	109.0178	3.2669	-37.7611	-2.8322	107.3274	-17.1406	687.4427	-43.3098	270.6599	52.1029	736.7616	-0.0592	0.0182	-0.0073	-0.0462	0.0165	0.9585
44.746	-3.9218	77.22	2.4647	-26.7039	-3.6383	76.5049	-20.1611	735.6012	-49.166	288.8619	59.3542	786.0288	-0.0592	0.0182	-0.0073	-0.0462	0.0165	0.9585
44.7597	-6.5387	51.4254	1.9213	-17.7429	-4.0839	51.3329	-22.9019	774.9653	-54.0014	303.5664	65.4244	825.6786	-0.0592	0.0182	-0.0073	-0.0462	0.0165	0.9585
44.7734	-7.5326	31.4161	1.4962	-10.8022	-4.0592	31.6839	-25.0854	803.0573	-57.5635	313.8189	69.9349	853.1304	-0.0592	0.0182	-0.0073	-0.0462	0.0165	0.9585
44.7871	-7.1432	16.7084	1.0961	-5.712	-3.5616	17.1505	-26.4809	818.6479	-59.7786	319.1464	72.7088	867.1432	-0.0592	0.0182	-0.0073	-0.0462	0.0165	0.9585
44.8009	-5.8667	6.7021	0.71496	-2.2588	-2.7639	7.1917	-26.9372	821.8775	-60.7135	319.6075	73.7482	867.9349	-0.0592	0.0182	-0.0073	-0.0462	0.0165	0.9585
44.8146	-4.2892	0.63552	0.39531	-0.17006	-1.9118	1.1029	-26.4233	814.1756	-60.5402	315.7635	73.2139	857.0843	-0.0592	0.0182	-0.0073	-0.0462	0.0165	0.9585
44.8283	-2.7678	-2.4519	0.15949	0.88849	-1.155	-2.0308	-25.0155	798.0562	-59.4983	308.6006	71.3861	837.304	-0.0592	0.0182	-0.0073	-0.0462	0.0165	0.9585
44.842	-1.4889	-3.5024	0.0001434	1.2412	-0.55491	-3.1307	-22.8599	776.787	-57.9006	299.3954	68.6547	812.0841	-0.0592	0.0182	-0.0073	-0.0462	0.0165	0.9585
44.8557	-0.52328	-3.3008	-0.091674	1.1589	-0.12903	-2.9775	-20.1656	753.8676	-56.0798	289.5132	65.457	785.1251	-0.0592	0.0182	-0.0073	-0.0462	0.0165	0.9585
44.8694	0.13877	-2.4497	-0.12861	0.85072	0.13586	-2.1667	-17.1759	732.5268	-54.3415	280.2173	62.2131	759.8121	-0.0592	0.0182	-0.0073	-0.0462	0.0165	0.9585
44.8831	0.53193	-1.3697	-0.12868	0.46239	0.27071	-1.1093	-14.0883	715.3975	-52.8997	272.5444	59.233	738.8712	-0.0592	0.0182	-0.0073	-0.0462	0.0165	0.9585
44.8969	0.72428	-0.32737	-0.099858	0.086804	0.30368	-0.075636	-11.0261	704.2894	-51.8935	267.2124	56.7204	724.139	-0.0592	0.0182	-0.0073	-0.0462	0.0165	0.9585
44.9106	0.77258	0.53249	-0.055968	-0.22333	0.26661	0.78558	-8.0695	700.0424	-51.3693	264.5625	54.7549	716.429	-0.0592	0.0182	-0.0073	-0.0462	0.0165	0.9585
44.9243	0.72359	1.1292	0.0052115	-0.43769	0.17472	1.3831	-5.253	702.5212	-51.3144	264.5553	53.3329	715.5484	-0.0592	0.0182	-0.0073	-0.0462	0.0165	0.9585
44.938	0.6111	1.4106	0.074338	-0.538	0.052331	1.6495	-2.5835	710.75	-51.646	266.8239	52.3718	720.4588	-0.0592	0.0182	-0.0073	-0.0462	0.0165	0.9585
44.9517	0.44825	1.3408	0.16157	-0.50932	-0.10303	1.5456	-0.058253	723.0791	-52.247	270.7443	51.7485	729.4566	-0.0592	0.0182	-0.0073	-0.0462	0.0165	0.9585
44.9654	0.25792	0.88581	0.26132	-0.33737	-0.27976	1.0193	2.3362	737.4306	-52.9781	275.529	51.3121	740.4379	-0.0592	0.0182	-0.0073	-0.0462	0.0165	0.9585
44.9791	0.060401	0.01406	0.383	-0.009806	-0.48144	0.022193	4.6169	751.5707	-53.7	280.3296	50.9167	751.183	-0.0592	0.0182	-0.0073	-0.0462	0.0165	0.9585
44.9929	-0.11453	-1.2737	0.51325	0.47264	-0.68619	-1.4615	6.7884	763.4389	-54.2854	284.3621	50.4389	759.6754	-0.0592	0.0182	-0.0073	-0.0462	0.0165	0.9585
45.0066	-0.22331	-2.9231	0.64544	1.0896	-0.86936	-3.3795	8.8179	771.4736	-54.6409	287.0297	49.8032	764.4244	-0.0592	0.0182	-0.0073	-0.0462	0.0165	0.9585
45.0203	-0.20429	-4.7837	0.73979	1.7823	-0.96142	-5.5579	10.6561	774.8209	-54.751	287.9977	49.0158	764.6521	-0.0592	0.0182	-0.0073	-0.0462	0.0165	0.9585
45.034	0.026464	-6.5491	0.74947	2.4334	-0.8736	-7.6454	12.2553	773.4222	-54.6703	287.2255	48.147	760.3596	-0.0592	0.0182	-0.0073	-0.0462	0.0165	0.9585
45.0477	0.5758	-7.6661	0.59556	2.8363	-0.47809	-9.0097	13.5789	767.9554	-54.5202	284.9485	47.3231	752.2552	-0.0592	0.0182	-0.0073	-0.0462	0.0165	0.9585
45.0614	1.5637	-7.293	0.17847	2.6745	0.38208	-8.6749	14.6377	759.6475	-54.4345	281.6117	46.6609	741.5576	-0.0592	0.0182	-0.0073	-0.0462	0.0165	0.9585
45.0751	3.0955	-4.2637	-0.60885	1.5123	1.8703	-5.286	15.4944	750.0033	-54.5281	277.7686	46.2369	729.738	-0.0592	0.0182	-0.0073	-0.0462	0.0165	0.9585
45.0889	5.2169	2.907	-1.8742	-1.2034	4.1306	2.8827	16.2623	740.4614	-54.8369	273.9521	46.037	718.1857	-0.0592	0.0182	-0.0073	-0.0462	0.0165	0.9585
45.1026	7.8741	15.888	-3.6856	-6.0897	7.2222	17.7725	17.066	732.074	-55.3179	270.5538	45.9769	707.9112	-0.0592	0.0182	-0.0073	-0.0462	0.0165	0.9585
45.1163	10.8318	36.2662	-6.055	-13.7265	11.0616	41.2451	17.9899	725.2638	-55.8395	267.7298	45.9075	699.3325	-0.0592	0.0182	-0.0073	-0.0462	0.0165	0.9585
45.13	13.5626	65.054	-8.8379	-24.4745	15.2826	74.52	19.0479	719.6535	-56.2196	265.3359	45.6578	692.1172	-0.0592	0.0182	-0.0073	-0.0462	0.0165	0.9585
